<?xml version="1.0" encoding="utf-8"?>
<!-- Generator: Adobe Illustrator 21.1.0, SVG Export Plug-In . SVG Version: 6.00 Build 0)  -->
<svg version="1.1" id="Layer_1" xmlns="http://www.w3.org/2000/svg" xmlns:xlink="http://www.w3.org/1999/xlink" x="0px" y="0px"
	 viewBox="0 0 433.3 233.3" style="enable-background:new 0 0 433.3 233.3;" xml:space="preserve">
<style type="text/css">
	.st0{display:none;fill:none;stroke:#FFD785;stroke-width:3;stroke-miterlimit:10;}
	.st1{enable-background:new    ;}
	.st2{fill:none;stroke:#FFD785;stroke-width:5;stroke-miterlimit:10;}
</style>
<path class="st0" d="M-420.2-347.4v-90.5h19.3v90.5H-420.2z"/>
<path class="st0" d="M-387.7-358l13.5-7c0.5,2.3,1.7,4.2,3.6,5.6c2,1.4,4.4,2,7.4,2c2.9,0,5.2-0.5,6.8-1.6s2.5-2.5,2.5-4.4
	c0-2.9-2.9-5.4-8.8-7.4c-1.8-0.6-3.3-1.1-4.3-1.5c-7.1-2.7-12.1-5.4-14.8-8.1c-3-3-4.4-6.7-4.1-11.3c0.3-5.1,2.8-9.9,6.8-13.1
	c4.7-3.7,10.9-5.6,18.5-5.6c5.4,0,10.1,1.1,14.1,3.3c4,2.2,6.9,5.3,8.7,9.3l-12.9,6.4c-0.7-2.3-1.9-4-3.6-5.2
	c-1.7-1.2-3.9-1.8-6.5-1.8s-4.7,0.5-6.3,1.6s-2.4,2.5-2.4,4.2c0,3,4,5.8,12,8.4c0.9,0.3,1.7,0.5,2.2,0.7c6.6,2.2,11.4,4.7,14.2,7.6
	c2.8,2.9,4.2,6.6,4.2,11.1c0,6-2.3,10.8-7,14.3s-10.9,5.3-18.9,5.3c-6.3,0-11.6-1.2-16-3.5C-383.3-350.8-386.2-354-387.7-358z"/>
<path class="st0" d="M-307.1-394.5c1.8-5.9,4.3-8.3,7.6-11.2c3.3-2.9,7.4-4.4,12.3-4.4c1.1,0,2.9,0.2,5.5,0.6
	c0.5,0.1,0.9,0.1,1.1,0.2l-2.7,18.9c-1.3-0.5-2.6-0.9-4-1.2c-1.3-0.3-2.8-0.4-4.2-0.4c-5.4,0-9.2,1.4-11.6,4.1s-3.5,7.3-3.5,13.8
	v26.7h-17.6V-408h17.5L-307.1-394.5z"/>
<path class="st0" d="M-207.8-347.4h-17.1l0.2-8.7c-2.4,3.8-5.3,6.6-8.6,8.4c-3.4,1.8-7.4,2.7-12.3,2.7c-8,0-14.5-3-19.4-9
	s-7.4-13.9-7.4-23.7c0-10.2,2.4-18.2,7.3-23.9c4.8-5.7,11.6-8.6,20.2-8.6c4.5,0,8.4,1,11.8,3s6.3,5,8.6,9v-10h16.7L-207.8-347.4
	L-207.8-347.4z M-223.8-377.8c0-5.4-1.4-9.7-4.1-12.9c-2.7-3.2-6.4-4.8-11.1-4.8c-4.8,0-8.5,1.6-11.3,4.7c-2.7,3.2-4.1,7.5-4.1,12.9
	c0,5.5,1.3,9.7,4,12.8c2.7,3,6.4,4.6,11.2,4.6c4.9,0,8.6-1.5,11.3-4.6C-225.2-368.1-223.8-372.3-223.8-377.8z"/>
<path class="st0" d="M-193-347.4v-46.9h-8.5V-408h8.5v-20.1h17.6v20.1h8.5v13.8h-8.5v46.9H-193V-347.4z"/>
<path class="st0" d="M-285.6-336.2v59.6c0,6.8-0.3,11.8-0.8,15s-1.4,5.9-2.7,8.1c-1.8,3.4-4.5,5.9-8,7.7c-3.5,1.7-7.8,2.6-12.8,2.6
	c-6.3,0-11.4-1.6-15.2-4.8c-3.8-3.2-6.3-7.8-7.3-14l14-6.7c0.3,2.8,1.1,5,2.2,6.4s2.7,2.2,4.7,2.2c2.5,0,4.2-0.9,5.1-2.7
	c0.9-1.8,1.4-5.8,1.4-12v-8.2v-53.3h19.4V-336.2z"/>
<path class="st0" d="M-207.9-245.7H-225l0.2-8.7c-2.4,3.8-5.3,6.6-8.6,8.4c-3.4,1.8-7.4,2.7-12.3,2.7c-8,0-14.5-3-19.4-9
	s-7.4-13.9-7.4-23.7c0-10.2,2.4-18.2,7.3-23.9s11.6-8.6,20.2-8.6c4.5,0,8.4,1,11.8,3s6.3,5,8.6,9v-10h16.7L-207.9-245.7
	L-207.9-245.7z M-224-276.2c0-5.4-1.4-9.7-4.1-12.9c-2.7-3.2-6.4-4.8-11.1-4.8c-4.8,0-8.5,1.6-11.3,4.7c-2.7,3.2-4.1,7.5-4.1,12.9
	c0,5.5,1.3,9.7,4,12.8c2.7,3,6.4,4.6,11.2,4.6c4.9,0,8.6-1.5,11.3-4.6C-225.3-266.4-224-270.7-224-276.2z"/>
<path class="st0" d="M-192.4-245.7v-95.8h17.2v34.1c0,1.9-0.1,3.8-0.2,5.7c-0.1,1.9-0.3,3.7-0.6,5.5c3.6-4.2,7.3-7.3,10.9-9.2
	c3.6-1.9,7.7-2.8,12.2-2.8c4.7,0,8.7,0.8,11.9,2.4c3.2,1.6,5.7,4,7.5,7.2c0.9,1.7,1.6,3.6,1.9,5.7c0.4,2.1,0.6,5.4,0.6,10v1.9v35.4
	h-17.6v-30c0-7.5-0.9-12.4-2.6-14.8s-4.7-3.6-8.9-3.6c-2.4,0-4.7,0.5-6.7,1.5s-3.7,2.4-5.1,4.3c-1.1,1.4-1.8,3.1-2.3,4.9
	c-0.5,1.9-0.7,4.7-0.7,8.5v2.4v26.7H-192.4z"/>
<path class="st0" d="M-51.4-245.7h-17.1l0.2-8.7c-2.4,3.8-5.3,6.6-8.6,8.4c-3.4,1.8-7.4,2.7-12.3,2.7c-8,0-14.5-3-19.4-9
	s-7.4-13.9-7.4-23.7c0-10.2,2.4-18.2,7.3-23.9s11.6-8.6,20.2-8.6c4.5,0,8.4,1,11.8,3c3.4,2,6.3,5,8.6,9v-10h16.7L-51.4-245.7
	L-51.4-245.7z M-67.4-276.2c0-5.4-1.4-9.7-4.1-12.9c-2.7-3.2-6.4-4.8-11.1-4.8c-4.8,0-8.5,1.6-11.3,4.7c-2.7,3.2-4.1,7.5-4.1,12.9
	c0,5.5,1.3,9.7,4,12.8c2.7,3,6.4,4.6,11.2,4.6c4.9,0,8.6-1.5,11.3-4.6C-68.8-266.4-67.4-270.7-67.4-276.2z"/>
<path class="st0" d="M-34.8-245.7v-60.6h17.2v9.5c3.2-4,6.6-6.9,10.2-8.7s7.7-2.8,12.1-2.8c4.7,0,8.6,0.8,11.8,2.4s5.7,4,7.6,7.3
	c0.9,1.7,1.6,3.6,1.9,5.7c0.4,2.1,0.6,5.4,0.6,10v1.9v35.4H9v-30c0-7.5-0.9-12.4-2.6-14.8c-1.7-2.4-4.7-3.6-8.9-3.6
	c-2.4,0-4.7,0.5-6.7,1.5s-3.7,2.4-5.1,4.3c-1.1,1.4-1.8,3.1-2.3,4.9c-0.5,1.9-0.7,4.7-0.7,8.5v2.4v26.7L-34.8-245.7L-34.8-245.7z"/>
<text transform="matrix(1 0 0 1 -595.7003 -287.9669)" style="display:none;enable-background:new    ; font-family:'FuturaBT-Heavy'; font-size:100px;">Israt </text>
<text transform="matrix(1 0 0 1 -520.5336 -210.049)" style="display:none;enable-background:new    ; font-family:'FuturaBT-Heavy'; font-size:100px;">Jahan</text>
<text transform="matrix(1 0 0 1 734.6667 -337.9657)" style="font-family:'UniversalisADFStd-Bold'; font-size:100px;">I</text>
<text transform="matrix(1 0 0 1 759.3667 -337.9657)" style="font-family:'UniversalisADFStd-Bold'; font-size:100px; letter-spacing:-1;">s</text>
<text transform="matrix(1 0 0 1 802.4667 -337.9657)" style="font-family:'UniversalisADFStd-Bold'; font-size:100px;">r</text>
<text transform="matrix(1 0 0 1 842.9667 -337.9657)" style="font-family:'UniversalisADFStd-Bold'; font-size:100px; letter-spacing:-1;">a</text>
<text transform="matrix(1 0 0 1 896.9667 -337.9657)" style="font-family:'UniversalisADFStd-Bold'; font-size:100px;">t </text>
<text transform="matrix(1 0 0 1 -98.5336 -366.7157)" style="display:none;enable-background:new    ; font-family:'UniversalisADFStd-Bold'; font-size:100px;">Jahan</text>
<text transform="matrix(1 0 0 1 734.6667 -129.4657)" style="fill:none;stroke:#000000;stroke-width:3; font-family:'FocoBlack-Regular'; font-size:100px;">I</text>
<text transform="matrix(1 0 0 1 765.7667 -129.4657)" style="fill:none;stroke:#000000;stroke-width:3; font-family:'FocoBlack-Regular'; font-size:100px; letter-spacing:-2;">s</text>
<text transform="matrix(1 0 0 1 808.8666 -129.4657)" style="fill:none;stroke:#000000;stroke-width:3; font-family:'FocoBlack-Regular'; font-size:100px;">r</text>
<text transform="matrix(1 0 0 1 852.4667 -129.4657)" style="fill:none;stroke:#000000;stroke-width:3; font-family:'FocoBlack-Regular'; font-size:100px; letter-spacing:-1;">a</text>
<text transform="matrix(1 0 0 1 902.8666 -129.4657)" style="fill:none;stroke:#000000;stroke-width:3; font-family:'FocoBlack-Regular'; font-size:100px;">t </text>
<text transform="matrix(1 0 0 1 -79.5336 -158.2157)" style="display:none;fill:none;stroke:#000000;stroke-width:3;enable-background:new    ; font-family:'FocoBlack-Regular'; font-size:100px;">Jahan</text>
<text transform="matrix(1 0 0 1 331.9664 -233.7157)" style="display:none;fill:#FFFAFC;enable-background:new    ; font-family:'Tondo'; font-size:100px;">Jahan</text>
<g class="st1">
	<path class="st2" d="M23.1,95.3H4.6V4.9l2.3-0.3c0.7-0.1,1.4-0.2,2.1-0.3c0.7-0.1,1.3-0.1,2-0.1c1.2,0,2.5,0.1,3.9,0.4
		c1.4,0.3,2.8,0.8,4,1.5c1.2,0.7,2.2,1.8,3,3.2c0.8,1.4,1.2,3.2,1.2,5.5V95.3z"/>
</g>
<g class="st1">
	<path class="st2" d="M84.8,38.8c0,1.4-0.4,3-1.3,4.8c-0.9,1.8-1.8,3.6-2.8,5.2c-0.9-0.7-2-1.5-3.3-2.2c-1.3-0.8-2.8-1.5-4.4-2.2
		s-3.3-1.2-5.1-1.7c-1.8-0.4-3.6-0.7-5.3-0.7c-1,0-2,0.1-3.1,0.2c-1.1,0.1-2.1,0.4-2.9,0.8c-0.9,0.4-1.6,1-2.2,1.8
		c-0.6,0.8-0.9,1.8-0.9,3c0,3.1,3.3,5.3,9.9,6.8c2.7,0.5,5.4,1.2,8,2.1c2.7,0.9,5,2.1,7.2,3.6c2.1,1.5,3.8,3.5,5.1,5.8
		c1.3,2.3,2,5.3,2,8.8c0,3.6-0.7,6.8-2.1,9.6c-1.4,2.8-3.3,5.1-5.7,7c-2.4,1.9-5.3,3.3-8.6,4.3c-3.3,1-6.9,1.5-10.7,1.5
		c-4.1,0-7.4-0.3-10.1-0.9c-2.7-0.6-5-1.3-6.8-2.1c-1.3-0.5-2.6-1.3-4.1-2.4c-1.5-1-2.2-2.5-2.2-4.3c0-1.5,0.4-3.1,1.4-4.8
		c0.9-1.7,1.9-3.4,3.1-5.2c0.8,0.7,1.8,1.5,3,2.2c1.2,0.8,2.6,1.5,4.2,2.2c1.6,0.7,3.3,1.2,5.1,1.7c1.8,0.5,3.6,0.7,5.5,0.7
		c1.2,0,2.4-0.1,3.6-0.3c1.3-0.2,2.4-0.5,3.3-1.1c0.9-0.5,1.7-1.3,2.4-2.2c0.6-0.9,0.9-2.1,0.9-3.5c0-2.6-1-4.5-3-5.6
		c-2-1.1-5.1-2.1-9.1-2.9c-2.6-0.5-5.1-1.3-7.6-2.2c-2.4-0.9-4.6-2.1-6.5-3.6c-1.9-1.5-3.4-3.4-4.5-5.6c-1.1-2.3-1.7-5-1.7-8.2
		c0-3.2,0.7-6.1,2.2-8.5c1.4-2.4,3.4-4.5,5.7-6.2c2.4-1.7,5.2-3,8.3-3.9c3.2-0.9,6.4-1.3,9.9-1.3c3.6,0,6.8,0.3,9.7,0.8
		c2.8,0.5,5.3,1.3,7.4,2.2C82.6,34.1,84.6,36.2,84.8,38.8z"/>
</g>
<g class="st1">
	<path class="st2" d="M113.4,37.7c0.5-0.8,1.3-1.7,2.2-2.7c0.9-1,2-1.9,3.3-2.7c1.3-0.8,2.7-1.5,4.3-2c1.6-0.5,3.3-0.8,5.1-0.8
		c1.1,0,2.2,0.1,3.4,0.3c1.2,0.2,2.3,0.5,3.4,1c1,0.5,1.9,1.2,2.5,2c0.6,0.9,0.9,1.9,0.9,3.2c0,1-0.1,2.1-0.4,3.2
		c-0.3,1.2-0.6,2.4-1.1,3.6c-0.5,1.2-0.9,2.4-1.4,3.5c-0.5,1.1-1,2.1-1.6,3c-1.5-1.3-3.1-2.2-4.6-2.9c-1.5-0.7-3.3-1-5.4-1
		c-2.8,0-5.1,0.8-7,2.4s-2.8,3.6-2.8,5.8v41.6H95.9V31.4l1.6-0.3c0.5-0.1,1.2-0.2,1.9-0.2c0.7,0,1.6-0.1,2.6-0.1
		c2.9,0,5.4,0.6,7.5,1.7C111.6,33.7,112.9,35.4,113.4,37.7z"/>
</g>
<g class="st1">
	<path class="st2" d="M200.8,79.6c0,7,1,12.2,3.1,15.5c-1.6,0.6-3.1,1.1-4.5,1.4c-1.4,0.3-2.9,0.4-4.4,0.4c-3.2,0-5.7-0.6-7.4-1.9
		c-1.7-1.3-2.7-3.1-3.2-5.4c-2,2.1-4.6,3.8-7.8,5.3c-3.2,1.4-7.2,2.2-11.9,2.2c-2.4,0-4.9-0.3-7.3-1c-2.4-0.7-4.6-1.8-6.6-3.3
		c-2-1.5-3.6-3.6-4.9-6.2c-1.3-2.6-1.9-5.7-1.9-9.4c0-4.6,1.1-8.3,3.3-11.2c2.2-2.9,5-5.2,8.3-6.8c3.3-1.7,6.9-2.8,10.8-3.4
		c3.9-0.6,7.4-1,10.7-1.2c1.1-0.1,2.1-0.1,3.2-0.1c1,0,2,0,2.9,0v-2.4c0-3.4-0.9-5.9-2.8-7.3c-1.8-1.4-4.8-2.2-9-2.2
		c-3.9,0-7.3,0.6-10.3,1.9c-3,1.3-6,2.7-8.9,4.3c-1.3-1.5-2.3-3.2-3-5.1c-0.8-1.8-1.1-3.2-1.1-4.1c0-1.2,0.7-2.4,2.1-3.6
		c1.4-1.2,3.3-2.3,5.7-3.2c2.4-0.9,5.2-1.7,8.4-2.3c3.2-0.6,6.5-0.9,10-0.9c4.9,0,9,0.5,12.4,1.5c3.4,1,6.1,2.5,8.2,4.6
		c2.1,2.1,3.6,4.7,4.5,7.8c0.9,3.1,1.4,6.7,1.4,10.9V79.6z M183.5,64c-0.6,0-1.3,0-1.9,0c-0.6,0-1.3,0-1.9,0.1
		c-2.3,0.2-4.5,0.5-6.7,0.9c-2.2,0.4-4.2,1-5.9,1.9c-1.7,0.9-3.1,2-4.2,3.4c-1.1,1.4-1.6,3.3-1.6,5.5c0,2.5,0.7,4.7,2.2,6.4
		c1.4,1.8,3.9,2.6,7.3,2.6c1.7,0,3.3-0.2,4.9-0.7c1.5-0.5,2.9-1,4.1-1.8c1.2-0.7,2.1-1.5,2.8-2.4c0.7-0.9,1-1.6,1-2.4V64z"/>
</g>
<g class="st1">
	<path class="st2" d="M216.4,85.6c-0.6-1.8-1-3.7-1.2-5.7c-0.2-2-0.3-4-0.3-5.9V11.2l2-0.3c0.6-0.1,1.3-0.2,2-0.2
		c0.7,0,1.4-0.1,2.2-0.1c1.4,0,2.9,0.1,4.3,0.4c1.4,0.3,2.7,0.8,3.9,1.6c1.2,0.8,2.1,1.9,2.8,3.3c0.7,1.4,1.1,3.2,1.1,5.5V31h18.9
		v13.8h-18.9v28.9c0,6.3,2.6,9.5,7.7,9.5c1.3,0,2.5-0.2,3.6-0.6c1.1-0.4,2.2-0.9,3.1-1.4c0.9-0.5,1.7-1,2.4-1.6
		c0.6-0.5,1.1-0.9,1.4-1.2c1.4,2,2.4,3.7,3.1,5.1c0.7,1.4,1.1,2.8,1.1,4.1c0,1.2-0.5,2.3-1.4,3.4c-0.9,1.1-2.3,2.2-4,3.1
		c-1.7,0.9-3.8,1.7-6.2,2.3c-2.4,0.6-5.1,0.9-8,0.9c-5.7,0-10-1.1-13.1-3.2C219.8,91.9,217.7,89.1,216.4,85.6z"/>
</g>
<g class="st1">
	<path class="st2" d="M135.6,191.6c0,3.4-0.2,7.3-0.7,11.6c-0.5,4.3-1.6,8.4-3.4,12.2c-1.8,3.8-4.4,7.1-7.9,9.7
		c-3.5,2.7-8.3,4-14.3,4c-3.2,0-5.4-0.6-6.8-1.8c-1.4-1.2-2.2-3.1-2.6-5.7c-0.2-1-0.3-2-0.3-3c0-1,0-2.1,0-3c2.6-0.1,5-0.4,7.2-0.9
		s4-1.4,5.5-2.7c1.5-1.3,2.6-2.9,3.4-4.9c0.8-2,1.2-4.6,1.2-7.8v-87.7l2.4-0.3c0.7-0.1,1.4-0.2,2.1-0.3c0.7-0.1,1.3-0.1,2-0.1
		c1.3,0,2.6,0.1,4.1,0.4c1.4,0.3,2.8,0.8,4,1.5c1.2,0.7,2.2,1.8,3,3.2c0.8,1.4,1.1,3.2,1.1,5.3V191.6z"/>
	<path class="st2" d="M205.5,186.3c0,7,1,12.2,3.1,15.5c-1.6,0.6-3.1,1.1-4.5,1.4c-1.4,0.3-2.9,0.4-4.4,0.4c-3.2,0-5.7-0.6-7.4-1.9
		c-1.7-1.3-2.7-3.1-3.2-5.4c-2,2.1-4.6,3.8-7.8,5.3c-3.2,1.4-7.2,2.2-11.9,2.2c-2.4,0-4.9-0.3-7.3-1c-2.4-0.7-4.6-1.8-6.6-3.3
		c-2-1.5-3.6-3.6-4.9-6.2c-1.3-2.6-1.9-5.7-1.9-9.4c0-4.6,1.1-8.3,3.3-11.2c2.2-2.9,5-5.2,8.3-6.8c3.3-1.7,6.9-2.8,10.8-3.4
		c3.9-0.6,7.4-1,10.7-1.2c1.1-0.1,2.1-0.1,3.2-0.1c1,0,2,0,2.9,0v-2.4c0-3.4-0.9-5.9-2.8-7.3c-1.8-1.4-4.8-2.2-9-2.2
		c-3.9,0-7.3,0.6-10.3,1.9c-3,1.3-6,2.7-8.9,4.3c-1.3-1.5-2.3-3.2-3-5.1c-0.8-1.8-1.1-3.2-1.1-4.1c0-1.2,0.7-2.4,2.1-3.6
		c1.4-1.2,3.3-2.3,5.7-3.2c2.4-0.9,5.2-1.7,8.4-2.3c3.2-0.6,6.5-0.9,10-0.9c4.9,0,9,0.5,12.4,1.5c3.4,1,6.1,2.5,8.2,4.6
		c2.1,2.1,3.6,4.7,4.5,7.8c0.9,3.1,1.4,6.7,1.4,10.9V186.3z M188.2,170.6c-0.6,0-1.3,0-1.9,0c-0.6,0-1.3,0-1.9,0.1
		c-2.3,0.2-4.5,0.5-6.7,0.9c-2.2,0.4-4.2,1-5.9,1.9c-1.7,0.9-3.1,2-4.2,3.4c-1.1,1.4-1.6,3.3-1.6,5.5c0,2.5,0.7,4.7,2.2,6.4
		c1.4,1.8,3.9,2.6,7.3,2.6c1.7,0,3.3-0.2,4.9-0.7c1.5-0.5,2.9-1,4.1-1.8c1.2-0.7,2.1-1.5,2.8-2.4c0.7-0.9,1-1.6,1-2.4V170.6z"/>
	<path class="st2" d="M263,164.7c0-2-0.1-3.8-0.2-5.5c-0.1-1.7-0.5-3.2-1.1-4.4c-0.6-1.2-1.5-2.2-2.8-2.8c-1.3-0.7-3.1-1-5.5-1
		c-3.3,0-6.2,0.7-8.6,2.1c-2.4,1.4-3.6,3.1-3.6,5.2V202h-18.4v-95.3c0-0.1,0.7-0.2,2-0.3c1.4-0.1,2.7-0.2,4.2-0.2
		c1.4,0,2.9,0.1,4.3,0.4c1.4,0.3,2.7,0.8,3.9,1.6c1.2,0.8,2.1,1.8,2.8,3.2c0.7,1.4,1.1,3.2,1.1,5.5v26.9c0.7-0.8,1.6-1.7,2.7-2.6
		c1.1-0.9,2.4-1.7,3.9-2.5c1.5-0.8,3.3-1.4,5.3-1.8c2-0.5,4.3-0.7,7-0.7c6.4,0,11.1,1.3,14.2,3.8c3.1,2.5,5,5.9,5.9,10
		c0.4,2.1,0.7,4.3,0.9,6.8c0.1,2.4,0.2,4.8,0.2,7.2V202H263V164.7z"/>
	<path class="st2" d="M351.3,186.3c0,7,1,12.2,3.1,15.5c-1.6,0.6-3.1,1.1-4.5,1.4c-1.4,0.3-2.9,0.4-4.4,0.4c-3.2,0-5.7-0.6-7.4-1.9
		c-1.7-1.3-2.7-3.1-3.2-5.4c-2,2.1-4.6,3.8-7.8,5.3c-3.2,1.4-7.2,2.2-11.9,2.2c-2.4,0-4.9-0.3-7.3-1c-2.4-0.7-4.6-1.8-6.6-3.3
		c-2-1.5-3.6-3.6-4.9-6.2c-1.3-2.6-1.9-5.7-1.9-9.4c0-4.6,1.1-8.3,3.3-11.2c2.2-2.9,5-5.2,8.3-6.8c3.3-1.7,6.9-2.8,10.8-3.4
		c3.9-0.6,7.4-1,10.7-1.2c1.1-0.1,2.1-0.1,3.2-0.1c1,0,2,0,2.9,0v-2.4c0-3.4-0.9-5.9-2.8-7.3c-1.8-1.4-4.8-2.2-9-2.2
		c-3.9,0-7.3,0.6-10.3,1.9c-3,1.3-6,2.7-8.9,4.3c-1.3-1.5-2.3-3.2-3-5.1c-0.8-1.8-1.1-3.2-1.1-4.1c0-1.2,0.7-2.4,2.1-3.6
		c1.4-1.2,3.3-2.3,5.7-3.2c2.4-0.9,5.2-1.7,8.4-2.3c3.2-0.6,6.5-0.9,10-0.9c4.9,0,9,0.5,12.4,1.5c3.4,1,6.1,2.5,8.2,4.6
		c2.1,2.1,3.6,4.7,4.5,7.8c0.9,3.1,1.4,6.7,1.4,10.9V186.3z M334,170.6c-0.6,0-1.3,0-1.9,0c-0.6,0-1.3,0-1.9,0.1
		c-2.3,0.2-4.5,0.5-6.7,0.9c-2.2,0.4-4.2,1-5.9,1.9c-1.7,0.9-3.1,2-4.2,3.4c-1.1,1.4-1.6,3.3-1.6,5.5c0,2.5,0.7,4.7,2.2,6.4
		c1.4,1.8,3.9,2.6,7.3,2.6c1.7,0,3.3-0.2,4.9-0.7c1.5-0.5,2.9-1,4.1-1.8c1.2-0.7,2.1-1.5,2.8-2.4c0.7-0.9,1-1.6,1-2.4V170.6z"/>
	<path class="st2" d="M387.1,202h-18.5v-63.9l1.6-0.3c0.5-0.1,1.2-0.2,1.9-0.2c0.7,0,1.6-0.1,2.6-0.1c2.9,0,5.4,0.5,7.5,1.6
		c2.1,1,3.4,2.9,4,5.5c1.5-2.1,3.9-4,7-5.7c3.2-1.8,7.4-2.6,12.8-2.6c6.4,0,11.1,1.3,14.2,3.8c3.1,2.5,5,5.9,5.9,10
		c0.5,2.1,0.7,4.3,0.9,6.8c0.1,2.4,0.2,4.8,0.2,7.2V202h-18.4v-37.3c0-2-0.1-3.8-0.2-5.5c-0.1-1.7-0.5-3.2-1.1-4.4
		c-0.6-1.2-1.5-2.2-2.8-2.8c-1.3-0.7-3.1-1-5.5-1c-3.3,0-6.2,0.7-8.6,2.1c-2.4,1.4-3.6,3.1-3.6,5.2V202z"/>
</g>
</svg>
